<svg xmlns="http://www.w3.org/2000/svg" id="Layer_2" data-name="Layer 2" viewBox="0 0 234.17 186.64"><g id="Layer_1-2" data-name="Layer 1"><g><path d="m56.21,88.64l-1.91-3.63c-.51-.98-1.72-1.35-2.7-.84-.98.52-1.35,1.72-.84,2.7l3.8,7.21s.02.02.03.04c.21.5.61.92,1.15,1.12.23.08.46.12.69.12.81,0,1.58-.5,1.88-1.31,11.04-30.08,44.48-45.58,74.57-34.54,12.87,4.72,23.7,13.88,30.47,25.78,0,0,0,.01.01.02.17.4.48.76.9.98.3.16.62.23.93.23.72,0,1.41-.39,1.77-1.07l3.8-7.21c.51-.98.14-2.19-.84-2.7-.98-.51-2.19-.14-2.7.84l-2.14,4.07c-7.29-11.32-18.11-20.02-30.82-24.68-30.77-11.29-64.83,3.41-78.04,32.89Z"></path><path d="m145.86,127.49c-.16-1.24-.74-2.22-1.63-2.78-.52-.32-1.02-.64-1.53-.89-.21-.1-.44-.19-.68-.27-.42-.15-.85-.3-1.19-.59-.83-.71-1.61-1.48-2.37-2.23l-.63-.62c-.07-.07-.14-.13-.21-.19-.32-.29-.69-.62-.68-1.21,0-.23.06-.45.1-.65.03-.12.06-.24.07-.36.08-.53-.04-1.08-.17-1.56-.13-.49-.29-.98-.44-1.45-.3-.92-.61-1.88-.72-2.87v-.09c-.04-.24-.06-.48-.17-.66-.09-.16-.26-.29-.42-.42l-.46-.37c-.68-.54-1.38-1.11-2.1-1.62-1.98-1.41-3.26-3.02-3.93-4.94-.65-1.88-1.23-3.81-1.79-5.68l-.17-.57c-.14-.47-.27-.95-.41-1.43-.43-1.54-.87-3.14-1.7-4.56-.45-.76-1.11-1.32-1.99-1.65-.49-.19-1.02-.32-1.54-.44-.2-.05-.4-.1-.6-.15-1.68-.44-2.8-1.45-3.33-3.02l-.02-.07c-.04-.12-.08-.23-.13-.3-.5-.66-1-1.32-1.5-1.98-.86-1.13-1.71-2.26-2.56-3.4-.16-.21-.21-.48-.26-.71-.01-.06-.03-.13-.04-.19-.06-.23-.1-.47-.15-.7-.09-.44-.17-.86-.32-1.26-.3-.81-.94-1.34-1.62-1.9-.13-.11-.26-.22-.39-.33-1.02-.88-2.08-1.92-3.32-3.28-.9-.99-2.06-1.27-3.18-1.44-.3-.04-.6-.36-.7-.62-.27-.72-.51-1.46-.75-2.18l-.21-.63c-.43-1.29-1.27-2.22-2.49-2.76l-.75-.33c-1.08-.48-2.19-.99-3.32-1.32-.13-.04-.24-.09-.36-.13-1.48.53-2.94,1.12-4.38,1.77.6.4,1.26.74,1.98,1.02.91.35,1.83.68,2.74,1.01l.6.22c1.93.7,3,1.92,3.36,3.85.44,2.3,1.79,3.73,3.8,4,1.14.16,1.75.75,2.39,1.38l.16.15c.43.42.88.83,1.33,1.23.47.42.93.85,1.39,1.29.23.23.34.65.3.93-.15,1.1.26,2.1,1.21,2.97,1.22,1.12,2.05,2.51,2.84,3.85l.35.59c.47.78.95,1.59,1,2.61.02.08.25.26.36.35l.14.11c1.63,1.37,3.45,2.38,5.42,3,1.36.43,1.8,1.4,2.07,2.39.35,1.25.79,2.51,1.22,3.72.17.49.35.98.51,1.48,1.05,3.08,2.25,6.32,4.31,9.12.69.94,1.7,1.81,2.86,2.47,1.22.69,1.56,1.69,1.75,2.66.08.43.13.88.15,1.34.11,3.1.91,5.27,2.6,7.03,1.29,1.35,2.59,2.62,4.34,3.38l.34.14c.49.2,1,.41,1.42.75.4.31.58.74.5,1.16-.09.44-.44.79-.96.94-.28.08-.57.14-.86.2-.34.07-.67.13-.98.24-.43.14-.97.32-1.27.63-.57.59-1.12,1.23-1.65,1.84-.52.6-1.05,1.22-1.6,1.8-.41.44-.91.79-1.39,1.13-.15.11-.3.21-.44.32-.17.12-.34.24-.51.36-.68.46-1.32.89-1.57,1.64-.16.48-.23,1.17-.03,1.48.55.89.45,1.8.36,2.6l-.03.27c-.07.64-.25,1.27-.42,1.87-.1.33-.19.67-.27,1-.21.89-.14,1.54.2,2.11.31.51.06.83-.23,1.08l-.14.12c-.78.66-1.58,1.34-2.27,2.09-.67.74-1.05,1.73-1.14,3.04-.05.73-.39,1.26-1.05,1.65-1.28.75-1.82,1.77-1.64,3.1.03.2.07.41.11.61.08.39.15.79.15,1.19,0,.69-.05,1.42-.31,2.04-.42.98-.32,1.89.35,3.13.19.34.34.69.52,1.09.08.19.17.39.27.6l.19.41-1.33-.18c-.55-.08-1.06-.15-1.57-.21-4.95-.59-8.16.52-10.41,3.59-.55.75-.85,1.73-1.14,2.68-.06.18-.11.36-.17.54-.4,1.24.04,2.35.5,3.54.11.28.21.55.31.83.37,1.08.52,2.12.45,3.12-.05.63-.29,1.41-.83,1.52-.04,0-.09.01-.13.01-.4,0-.79-.37-1.19-1.14l-.11-.21c-.62-1.17-.9-1.7-1.75-2.79-.75-.96-1.76-1.81-3.11-2.59-.15-.08-.41-.08-.64-.08h-.12c-2.96,0-5.98.02-8.97.04-6.48.05-13.19.09-19.78-.1-6.96-.21-14.04-.19-20.88-.17-4.47.01-9.09.03-13.64-.02-1.71-.02-3.08.07-4.31.28l-.17.03c-1.51.26-3.07.53-4.64.5-.88-.01-1.89-.15-2.7-1.11-.35-.41-.76-.75-1.21-1.11-.3-.25-.61-.5-.89-.77-.29-.28-.4-.75-.45-1-.29-1.71-.75-3.69-2.01-5.4-.61-.83-1.17-1.66-1.76-2.54-.26-.38-.51-.77-.78-1.16l-.1-.15.12-.14c.72-.89.53-1.94.04-3.25-.16-.43-.39-.83-.63-1.26-.2-.35-.4-.72-.57-1.1-.26-.6-.43-1.24-.59-1.85l-.06-.22c-.24-.9.21-1.58.61-2.19.07-.1.14-.21.2-.31.84-1.37,1.08-2.86.72-4.56-.24-1.13-.49-2.26-.74-3.38-.24-1.08-.49-2.16-.71-3.24l-.11-.52c-.19-.87-.39-1.76-.36-2.65.02-.63.25-1.24.47-1.84.1-.28.21-.55.29-.83.03-.11.07-.22.11-.33.11-.32.21-.63.19-.9-.1-1.08.29-1.91.91-2.82,1.34-1.97,2.66-4.14,3.25-6.63.42-1.79-.02-3.33-1.39-4.85-.12-.14-.26-.26-.4-.39l-.32-.3.08-.17c.14-.28.27-.56.4-.84.3-.65.59-1.26.94-1.85.56-.93.2-1.74-.28-2.47-.39-.61-.92-1.23-1.64-1.91-1.13-1.08-1.81-2.49-2.07-4.31-.22-1.56-.71-3.15-1.52-5-1.18-2.69-1.94-5.3-2.32-7.98-.19-1.3-.41-2.62-.63-3.9-.11-.64-.22-1.29-.33-1.93-.12-.74-.24-1.49-.36-2.23-.24-1.5-.49-3.05-.76-4.56-.3-1.62-.62-3.23-.94-4.84-.25-1.25-.5-2.5-.74-3.76-.28-1.47-.55-2.94-.82-4.41-.34-1.84-.68-3.69-1.03-5.53-.18-.94-.41-1.9-.62-2.82-.16-.7-.33-1.4-.48-2.11-.24-1.12-.46-2.23-.69-3.35-.28-1.38-.56-2.76-.86-4.14-.31-1.42-.63-2.83-.95-4.24-.34-1.48-.68-2.95-1-4.44-.45-2.1-.89-4.21-1.33-6.31-.31-1.49-.62-2.97-.93-4.46-.12-.57-.28-1.18-.49-1.9-.05-.17-.02-.34.08-.48.31-.42,1.23-.46,1.61-.46h0c.33,0,.44,0,.71-.04.17-.02.41-.04.8-.07,2.85-.23,5.76-.22,8.56-.21,2.46,0,5,.02,7.49-.13,3.13-.19,6.76-.37,10.29-.14,3.62.24,7.29.22,10.85.19,1.89-.01,3.85-.02,5.78,0,3.79.05,7.65.04,11.39.03,1.78,0,3.54-.03,5.34-.01.42,0,.7.11.84.34.21.34.01.82-.15,1.15-.52,1.03-1.01,2.11-1.52,3.31-.56,1.32-.03,2.51.6,3.71,1.06,2.02,2.94,3.01,5.11,4.01,1.18.55,2.44,1,3.66,1.43.67.24,1.34.48,2,.73l.2.08c1.17.45,2.38.92,3.53,1.49.37.18.5.76.6,1.22l.02.08c.44,1.93,1.23,3.74,2.41,5.56.46.71.86,1.44,1.21,2.19,1.1-.51,2.22-1,3.35-1.46-.37-.74-.77-1.49-1.23-2.25-1.32-2.19-2.4-4.2-2.24-6.67,0,0-.02-.05-.19-.19-1.96-1.73-4.39-2.67-6.75-3.58-.39-.15-.79-.3-1.18-.46-.39-.15-.79-.3-1.2-.46-1.88-.71-4.02-1.51-5.49-2.92-.55-.52-.86-1.15-.88-1.78-.07-1.96,1.45-4.1,2.35-5.2,1.27-1.54,1.71-2.47.76-3.55-.04-.05-.08-.1-.12-.14-.24-.3-.41-.51-1.62-.49-6.19.08-11.28.03-16.67-.03-4.46-.05-9.07-.09-14.36-.06-2.89.02-5.82,0-8.66-.03-5.94-.05-12.08-.11-18.11.26-1.01.06-2.31.13-3.66.2-2.91.16-6.2.33-6.97.45-.94.15-1.7.86-1.96,1.21-.34.46-.3,2.09-.23,2.53.24,1.35.53,2.71.81,4.03.14.67.29,1.33.42,2,.23,1.11.45,2.22.67,3.33.24,1.17.47,2.34.71,3.51.26,1.26.52,2.52.79,3.78l.51,2.44c.48,2.32.96,4.64,1.44,6.95l.98,4.78c.32,1.54.63,3.08.95,4.63.22,1.06.44,2.12.67,3.18.28,1.35.57,2.7.84,4.04.3,1.44.58,2.88.85,4.32.28,1.46.55,2.92.82,4.38l.04.2c.29,1.58.58,3.16.84,4.75.13.76.25,1.52.36,2.28.12.78.24,1.56.37,2.33.29,1.74.61,3.6.97,5.46.1.5.18,1,.26,1.5.22,1.32.45,2.69.92,3.93l.26.68c1.08,2.83,2.2,5.75,3.04,8.72.45,1.57,1.11,3.35,2.64,4.64.52.44.45.79.13,1.29-1.05,1.64-1.38,2.8-.32,4.57.15.25.31.5.47.75.34.51.68,1.04.93,1.62.23.53.24,1.26.03,1.79-.23.57-.61,1.07-.97,1.56-.09.12-.18.24-.27.36-.95,1.3-1.68,2.79-2.24,4.57l-.19.6c-.32,1.02-.66,2.07-.92,3.12l-.08.33c-.31,1.23-.61,2.39-.38,3.68.31,1.77.73,3.54,1.29,5.4.75,2.51,1.18,5.19-.71,7.79-1.06,1.45-1.04,3.08.07,4.71.14.2.27.4.4.61.13.21.27.42.41.62.5.74.73,1.52.69,2.38-.04.86-.07,1.99.07,3.1.15,1.18.96,2.09,1.78,2.91,1.83,1.85,2.42,4.21,2.77,6.49.26,1.67.92,2.72,2.13,3.43,1.05.62,1.88,1.18,2.6,1.77.89.73,1.76,1.06,2.65,1.04.74-.02,1.5-.01,2.23,0,1.45.03,2.95.05,4.42-.23,1.19-.23,2.42-.26,3.62-.29.31,0,.62-.02.92-.03l1.21-.04c2.08-.08,4.24-.15,6.34-.17,1.07,0,2.15-.02,3.22-.04,4.85-.06,9.87-.13,14.82.19,3.13.2,6.33.21,9.43.22,1.7,0,3.46.01,5.19.05.78.02,1.56.04,2.34.06,4.83.12,9.81.24,14.71-.24.78-.08,1.56,0,2.32.09.59.06,1.19.13,1.78.12h.05c.99,0,1.52.51,1.95,1.07.4.53.75,1.06,1.09,1.58.71,1.09,1.38,2.12,2.5,2.96.59.44,1.25.82,1.88,1.19.12.07.23.14.36.19h0s.05.02.08.03c.2.06.42.06.64.06h1.36s0,0,0,0c.74,0,1.5-.65,1.91-1.3.56-.88.72-1.89.84-3.04.15-1.32.24-2.9-.22-4.51-.09-.3-.19-.6-.29-.9-.3-.88-.61-1.79-.52-2.82.12-1.32,1.12-2.88,2.6-3.2.76-.16,1.59-.31,2.38-.29.35,0,.7,0,1.05,0,1.06,0,2.13,0,3.23.22.61.12,1.27,0,1.97-.14.41-.08.83-.16,1.25-.19.9-.06,1.36-.4,1.5-1.08.1-.49.13-1,.17-1.5.02-.25.04-.49.06-.74.1-1.01-.14-1.97-.71-2.88-.39-.62-.48-1.25-.26-2.04l.07-.26c.25-.91.49-1.77.23-2.7-.21-.75.07-1.37.85-1.88.59-.38,1.1-.93,1.59-1.46l.11-.12c.13-.14.22-.43.21-.63-.02-.25-.09-.5-.16-.77-.06-.23-.12-.46-.16-.69-.04-.29-.02-.63.06-1.02.18-.82.83-.94,1.36-1.04.1-.02.19-.04.28-.06l.15-.04c.96-.22,1.59-.42,1.67-1.15.15-1.31.13-2.7-.05-4-.14-.98-.16-1.83.2-2.8.07-.18.14-.36.21-.54.5-1.28.96-2.48.16-3.71l-.13-.19.18-.14c.21-.16.43-.32.65-.47.47-.33.9-.63,1.25-1.02.52-.59,1-1.25,1.47-1.89.28-.39.57-.78.87-1.16.83-1.06,1.81-2.06,3.43-2.23.97-.1,1.78-.48,2.41-1.15.73-.77,1.11-2.27.94-3.64Z"></path><path d="m234.17,134.61c.03-2.23-.13-2.42-2.14-4.7l-.4-.45c-2.06-2.35-4.29-4.55-6.45-6.68l-.1-.1c-.91-.9-1.81-1.79-2.71-2.7-2-2.03-4.1-3.69-6.42-5.09-1.69-1.02-3.46-2.23-5.41-3.71l-.1-.07c-1.26-.95-2.56-1.94-3.53-3.19-.07-.09-.12-.16-.16-.22.06-.03.14-.08.24-.13.26-.13.53-.25.83-.38.51-.22,1.04-.45,1.55-.77,1.55-.99,2.05-2.65,1.29-4.31-.22-.48-.51-.88-.83-1.32-.51-.69-1.22-1.04-2.17-1.07-1.03-.01-2.06-.13-3.1-.35-7.71-1.56-13.48-5.92-17.16-12.94-1.89-3.61-2.72-7.43-2.47-11.34.18-2.86-.54-5.47-2.29-8.2-.99-1.55-2.16-2.94-3.18-4.09-1.08-1.22-2.22-2.41-3.33-3.56-1.36-1.42-2.77-2.89-4.07-4.42-.91-1.08-2.03-2.54-2.68-4.3-.46-1.24-.48-2.36-.06-3.42.52-1.32,1.34-2.34,2.46-3.02,1.41-.87,2.08-2.17,1.98-3.86-.07-1.14-.41-2.18-.82-3.33-.1-.29-.21-.57-.32-.85-.31-.81-.6-1.57-.73-2.38-.07-.45,0-.55,0-.55s.07-.09.51-.16c.89-.14,1.83-.12,2.8.07.9.17,1.73.05,2.69-.4,1.77-.82,4.12-1.78,6.68-1.98,2.89-.22,4.84.77,5.99,3.03.16.3.38.58.62.79.47.39,1.11.53,1.69.35.54-.17.93-.57,1.08-1.11.27-.98.44-2.13-.32-3.23-.76-1.11-1.52-2.32-1.92-3.7-.29-.99-.1-1.62.66-2.2.95-.73,1.14-1.47,1.13-1.96,0-.51-.24-1.27-1.28-1.99-.1-.07-.21-.14-.33-.21-.08-.05-.16-.1-.24-.15-.01-.01-.03-.02-.04-.03.45-.2.91-.39,1.37-.58l.7-.28c.16-.06.32-.11.47-.19.83-.39,1.35-1.02,1.46-1.78.11-.75-.2-1.51-.87-2.12-.66-.6-1.43-.96-2.09-1.26-2.66-1.18-5.41-2.06-7.98-2.84-2.52-.77-4.55-1.99-6.22-3.75-.79-.83-1.05-1.77-.82-2.96.21-1.1.07-1.96-.42-2.58-.5-.63-1.31-.96-2.46-.99-1.38-.06-2.75.11-3.95.25-.39.05-.74,0-1.17-.13-2.85-.91-6.56-1.63-10.05.93-.68.5-1.45.53-2.58.08-1-.4-1.94-.99-2.86-1.56-.78-.49-1.48-.61-2.1-.36-.62.25-1.05.83-1.28,1.73l-.15.6c-.14.58-.29,1.18-.5,1.78-.3-.28-.59-.5-.9-.67-1.07-.6-2.23-.45-3.11.4-.33.32-.59.71-.86,1.25-.34.72-.58,1.44-.78,2.19-1.07-.55-2.2-.5-3.28-.4-.12.01-.16,0-.26-.1-.82-.87-1.71-1.78-2.71-2.59-1.13-.91-2.11-1.25-2.99-1.03-.88.22-1.57.98-2.13,2.32-.95,2.27-2.11,3.86-3.66,4.98-.03.02-.06.04-.09.07-.05-.23-.1-.47-.13-.71-.06-.48-.21-1.09-.74-1.56-1.08-.95-1.95-2.19-2.76-3.89l-.11-.23c-.26-.56-.53-1.14-.94-1.67-.94-1.24-2.4-1.51-3.71-.68-.59.37-1.06.85-1.41,1.22-1.12,1.2-2.1,2.51-3.1,3.85-.15.2-.31.32-.55.41-1.1.43-2.24.41-3.61.24-.9-.11-1.83-.29-2.73-.48-1-.2-2.03-.41-3.08-.52-2.53-.26-4.4.08-6.05,1.1-1.28.79-1.56,1.65-1,3.04l.21.51c.14.34.28.68.41,1.03l.06.16c.54,1.53,1.11,3.11,1.13,4.73.01,1.03-.23,1.32-1.23,1.47-.3.05-.61.07-.94.09-.19.01-.38.02-.56.04l-.48.04c-.43.03-.88.06-1.33.15-1.88.35-2.86,1.74-2.55,3.62.18,1.13.6,2.56,2.18,3.52.61.37.94.67,1,.92.06.26-.11.69-.53,1.36-.13.2-.26.4-.39.6l-.06.09c-.4.6-.81,1.23-1.14,1.92-.81,1.71-.92,3.16-.32,4.44,1.75,3.78,4.54,5.94,8.32,6.45-.31.38-.67.73-1.04,1.11-.14.14-.27.27-.46.46-.43.43-.87.88-1.17,1.5-.3.62-.32,1.29-.07,1.87.25.58.74,1.02,1.39,1.24.38.13.72.2,1.04.21,2.94.15,6.7,0,9.99-2.63,1.34-1.07,2.6-2.05,3.84-2.98.92-.69,2.16-1.52,3.63-1.79.27-.05.52-.09.73,0,3.51,1.57,6.9,3.18,9.91,5.53,2.06,1.61,3.52,3.42,4.41,5.45,1.44.52,2.86,1.09,4.25,1.71-.83-3.92-2.98-7.25-6.42-9.89-3.72-2.86-7.89-4.81-11.11-6.2-.92-.39-1.81-.21-2.6-.05-2.37.48-4.24,1.84-5.96,3.19l-.68.54c-1.05.83-2.13,1.69-3.27,2.42-1.25.8-2.57,1.02-4.2,1.13l.08-.09c.75-.83,1.47-1.76,1.67-3.02.13-.81-.05-1.58-.53-2.29-.45-.66-1.07-.97-1.85-.93-2.85.13-4.97-1.22-6.55-4.13-.22-.41-.19-.88.1-1.57.25-.6.62-1.14,1.01-1.73.12-.18.24-.36.36-.54.39-.6.76-1.2.97-1.91.62-2.01-.12-3.77-2.19-5.24-.47-.33-.7-.53-.79-.89l.41-.02c.71-.04,1.44-.08,2.15-.16,3.03-.34,4.63-2.21,4.5-5.27-.1-2.39-.87-4.56-1.68-6.56,0,0,0,0,0-.01.01,0,.02,0,.04-.01,1.3-.42,2.63-.29,3.64-.13.73.11,1.45.26,2.18.4,1.23.24,2.51.49,3.81.6,2.05.18,3.76-.12,5.25-.9.44-.23.81-.56,1.14-.99l.06-.08c.96-1.3,1.96-2.64,3.08-3.83.84,1.75,1.88,3.73,3.53,5.26.01.03.03.14.04.19l.03.15c.27,1.26.58,2.28.99,3.23.23.54.58,1.23,1.19,1.8.55.51,1.24.73,1.9.61.66-.12,1.21-.56,1.54-1.23.22-.44.42-.93.43-1.45,0-.65.27-1.13.94-1.72,1.38-1.21,2.45-2.82,3.38-5.05.85.73,1.68,1.56,2.48,2.44.67.74,1.49,1.03,2.44.87.07-.01.14-.02.24-.02.12,0,.24-.02.36-.04.9-.15,1.37.1,1.67.88.34.89,1.15,1.36,2.14,1.24.53-.07,1.45-.37,1.72-1.71.23-1.11.5-2.38.94-3.58.01.01.03.02.04.04l.09.08c.84.75,1.68,1.05,2.51.91.83-.14,1.52-.72,2.07-1.72.38-.7.67-1.45.86-2.23.28.16.57.3.86.44.15.07.3.15.45.22,2.47,1.26,4.83,1.1,7.02-.46.98-.7,2.16-.97,3.52-.82,1.15.13,2.27.39,3.34.77.58.21,1.14.27,1.7.2,1.29-.16,2.38-.26,3.38-.3-.45,3.19,1.46,5.26,2.97,6.56,1.98,1.7,4.25,2.91,6.95,3.69,2.32.68,4.42,1.41,6.4,2.22-.24.11-.47.23-.7.36-.93.53-2.19,1.45-2.3,3.2-.07,1.08.42,1.88,1.42,2.32.08.04.16.07.25.12-1.24,1.56-1.13,3.25-.8,4.57-4.28-1.06-8.18.37-11.82,1.94-.26.11-.46.14-.69.12-1.08-.12-2.33-.25-3.6-.1-1.39.16-2.47.72-3.11,1.6-.65.89-.85,2.08-.58,3.46.2,1,.55,1.93.89,2.85l.03.09c.12.33.25.67.36,1,.25.74.47,1.41.5,2.11.01.19-.03.32-.27.49-4.55,3.18-5.71,7.85-3.1,12.51.33.59.73,1.13,1.09,1.63.31.42.62.85.88,1.29.03.05.06.1.1.18l.1.19.13.14.1.06c.14.08.28.25.42.44.09.12.19.24.29.35l1.71,1.83c1.75,1.87,3.73,3.99,5.6,6.06,1.86,2.06,2.99,3.8,3.68,5.65.37.99.51,1.99.45,3.04-.7,11.33,6.17,22.31,16.71,26.7,3.04,1.27,5.99,1.96,9.01,2.12.11,0,.16,0,.27.27-.01,0-.03.01-.05.02l-.09.04c-.27.13-.54.26-.85.39-.4.18-.8.36-1.19.57-1.11.59-1.79,1.36-2.01,2.29-.23.93.02,1.93.73,2.97.97,1.41,2.21,2.5,3.77,3.69,2.98,2.28,6.06,4.34,9.17,6.14.42.24.77.63,1.15,1.04.17.19.34.38.53.56.74.73,1.49,1.47,2.28,2.24,3,2.94,6.1,5.99,8.92,9.18.68.77.94,1.44.9,2.3-.03.51-.04,1.03-.05,1.64-.01.8-.03,1.62-.12,2.42-.63-.84-1.26-1.69-1.89-2.53l-1-1.34c-1.19-1.6-2.41-3.25-4.09-4.48-.52-.38-1.04-.74-1.56-1.11l-.09-.07c-.82-.57-1.74-1.22-2.61-1.89-1.93-1.5-4.35-1.51-6.82,0-3.97,2.41-6.28,5.86-6.88,10.25-.3,2.25.42,3.96,2.16,5.07.71.46,1.41.99,2.11,1.52l.32.24c1.07.81,1.45,1.62,1.28,2.72-.05.34-.08.68-.12,1.06-.05.54-.09,1.05-.22,1.54-.24.88-.43,1.02-1.32,1,0,0,0,0-.01,0-.2,0-.41-.02-.66-.03-.86-.04-1.74-.09-2.66.07-2.38.4-4.42,2.39-4.85,4.72-.27,1.49-1.08,2.59-2.48,3.38l-.1.06c-1.61.9-3.28,1.84-4.55,3.36-.33.4-.75.59-1.44.68-.54.05-.99-.05-1.39-.34-.32-.23-.5-.51-.52-.79-.02-.35.2-.64.38-.82.2-.19.43-.4.64-.47,1-.36,1.56-1.12,2-1.79l.14-.22c.61-.93,1.23-1.9,1.72-2.95.17-.37.49-.6.98-.86l2.97-1.62c.89-.49,1.3-1.34,1.08-2.28-.66-2.83-.76-5.8-.86-8.66-.02-.55-.04-1.1-.06-1.64-.09-2.35-.37-4.13-.89-5.78-.63-2.01-1.77-3.81-3.39-5.35-1.64-1.56-3.53-2.54-5.17-3.3-.11-.05-.19-.11-.28-.38-.26-.85-.4-1.76-.54-2.63-.06-.36-.11-.72-.18-1.08-.13-.73-.26-1.44-.47-2.12-.75-2.48-2.43-3.77-4.98-3.84h-.24s-.06,0-.08,0c0,0,0-.02,0-.03-.16-1.82-1.88-3.37-3.9-3.52q-.29-.02-.37-.32c-1.02-3.98-3.54-6.93-7.48-8.79-1.54-.73-3.2-1.25-4.93-1.57-.32-.06-.57-.18-.83-.39-2.36-1.93-4.46-4.38-6.78-7.95-1.06-1.62-2.09-3.26-3.12-4.89l-.09-.14c-.82-1.29-1.63-2.59-2.46-3.87-.9-1.39-1.96-2.81-3.34-4.45-.83-.99-1.82-1.58-3.02-1.8.2-.9-.14-1.69-.45-2.41-.36-.84-.85-1.55-1.4-2.32-1.11-1.56-2.05-3.17-2.82-4.83-1.58-1.08-3.21-2.07-4.89-2.97.98,3.35,2.53,6.56,4.64,9.58.28.4.54.81.83,1.27l.37.58c.07.11.08.14.08.15,0,0,0,.05-.11.18-.53.64-.73,1.34-.58,2,.15.69.65,1.25,1.43,1.64.61.3,1.24.42,1.84.53l.35.07c.42.08.72.25.99.56,1.03,1.18,2.03,2.5,3.06,4.03,1.02,1.53,2.04,3.16,2.94,4.62,1.15,1.85,2.34,3.77,3.61,5.6,2.41,3.47,4.55,5.86,6.95,7.75.43.34.91.72,1.61.82,1.03.14,2.02.44,2.77.68,2.53.82,4.33,1.96,5.67,3.57,1.08,1.29,1.71,2.76,1.94,4.53l.05.14c.07.15.14.31.2.47.1.25.21.5.37.83l.11.14.08.06c.47.34,1.04.47,1.76.39.51-.05.85,0,1.15.18.38.23.36.26.2.59-.39.82-.33,1.59.17,2.23.28.37.94.96,2.13.73.64-.13,1.17-.17,1.64-.13.93.07,1.28.34,1.57,1.22.23.69.34,1.41.45,2.16l.07.43c.19,1.27.4,2.58.86,3.84.24.64.58,1.34,1.43,1.73,1.21.56,2.46,1.14,3.56,1.9,1.52,1.05,2.51,2.15,3.12,3.44.96,2.03,1.18,4.2,1.27,6.05.03.66.06,1.32.08,1.98v.22c.1,2.59.2,5.27.72,7.92-.36.19-.71.39-1.07.58l-1.26.69c-1.02.55-1.75,1.31-2.22,2.32-.5,1.06-1.16,2.06-1.79,2.98-.14.2-.35.33-.63.46-.08-.13-.19-.28-.37-.39-.27-.17-.57-.37-.96-.47-.76-.2-1.5-.22-2.13-.21-.81,0-1.61.1-2.42.2-.72.09-1.53.18-2.3.19-5.29.04-10.14-.11-14.82-.46-2.12-.16-3.61-.72-4.84-1.83-.55-.5-1.16-.94-1.77-1.37-1.93-1.38-4.03-1.75-6.24-1.08-.9.27-.9.27-1.38-.63-.56-1.06-1.63-1.44-2.65-.97-1.75.81-2.99,1.74-3.9,2.94-1.06,1.4-1.37,2.88-.93,4.54.35,1.32,1.03,2.54,2.08,3.73,1.93,2.18,4.22,3.85,6.6,5.52,1.53,1.07,3.15,2.13,4.61,3.09,2.2,1.45,4.48,2.95,6.62,4.55l.32.24c1.63,1.22,3.32,2.48,4.3,4.24.62,1.12,1.41,1.85,2.51,2.32.98.33,2.16.67,3.47.76.21.01.42.02.62.03.39,0,.77,0,1.18,0l.13-.02c2.05-.59,3.02-1.74,3.57-4.27.31-1.42.43-2.86.55-4.25.07-.79.14-1.6.24-2.4.42-3.2,1.53-5.44,3.51-7.04.61-.49,1.18-1.01,1.77-1.55.35,1.25,1.11,2.2,2.3,2.88,2.27,1.29,5.29.8,7.02-1.13.65-.73,1.48-1.38,2.53-2l.38-.22c.47-.27.93-.54,1.38-.82,1.96-1.22,3.19-3.01,3.66-5.31.25-1.25,1.21-2.06,2.5-2.11.56-.02,1.12-.01,1.74,0h.59c3.11.03,4.05-1.62,4.6-3.41.49-1.57.63-3.3.45-5.3-.13-1.38-1-2.39-1.91-3.27-.81-.78-1.73-1.41-2.63-2.02l-.59-.41c-.58-.4-.79-.86-.73-1.58.18-2.23,1.2-4.25,3.2-6.34.74-.77,1.59-1.37,2.53-1.76,1.39-.58,2.47-.29,3.32.87.54.74,1.16,1.19,2,1.44.83.25,1.49.88,2.22,1.61,1.38,1.41,2.55,3.04,3.68,4.62l.6.83c.67.92,1.36,1.88,2.22,2.7,1.49,1.44,2.82,1.47,4.32.09l.16-.15.87-4.06v-.62c.02-.45.03-.9.02-1.35-.02-.69,0-1.23,0-1.74Zm-50.94,27.84c-2.28,1.96-3.6,4.59-4.18,8.27-.16,1.01-.25,2.03-.34,3.04-.1,1.12-.2,2.28-.4,3.4-.07.39-.14.7-.23.98-.34,1.14-.63,1.32-1.8,1.14-.73-.11-1.5-.35-2.44-.74-.06-.02-.16-.07-.18-.08-1.31-2.46-3.41-4.21-5.44-5.78-2.28-1.76-4.69-3.35-7.03-4.88-1.04-.68-2.08-1.37-3.11-2.06-2.49-1.69-5.06-3.43-7.2-5.59-.81-.82-1.32-1.51-1.67-2.25-.4-.86-.28-1.6.37-2.3.19-.21.34-.36.51-.48.09-.07.18-.14.27-.22.14-.11.28-.23.39-.3,0,0,0,.01,0,.01.09.18.18.36.34.52,1.11,1.14,2.32,1.41,3.69.83,1.64-.7,3.02-.5,4.33.62.1.09.21.17.32.25.1.07.2.14.29.23,2.05,1.96,4.59,2.96,7.98,3.16,5.86.33,10.36.45,14.58.39.98-.01,1.96-.12,2.92-.22.12-.01.24-.03.37-.04-.81.74-1.57,1.44-2.36,2.12Z"></path></g></g></svg>